<?xml version="1.0" standalone="no"?>
<!DOCTYPE svg PUBLIC "-//W3C//DTD SVG 20010904//EN"
 "http://www.w3.org/TR/2001/REC-SVG-20010904/DTD/svg10.dtd">
<svg version="1.0" xmlns="http://www.w3.org/2000/svg"
 width="52.000000pt" height="52.000000pt" viewBox="0 0 52.000000 52.000000"
 preserveAspectRatio="xMidYMid meet">

<g transform="translate(0.000000,52.000000) scale(0.100000,-0.100000)"
fill="#000000" stroke="none">
<path d="M92 456 c-33 -43 -55 -111 -48 -149 6 -31 50 -87 60 -76 2 2 1 22 -3
44 -4 22 -4 54 0 70 l7 30 1 -30 c1 -16 6 -48 12 -70 l11 -39 19 22 c40 50 32
134 -20 201 l-18 23 -21 -26z"/>
<path d="M213 284 c-28 -14 -80 -91 -68 -102 2 -2 17 6 34 19 33 24 100 38
146 29 26 -5 23 -7 -23 -13 -29 -3 -69 -16 -88 -28 -40 -24 -117 -116 -111
-132 8 -24 27 -15 48 23 19 33 28 40 44 35 99 -28 166 -13 237 53 56 52 54 59
-26 99 -64 32 -149 40 -193 17z"/>
</g>
</svg>
